<svg width="128" height="128" viewBox="0 0 128 128" fill="none" xmlns="http://www.w3.org/2000/svg">
<rect width="128" height="128" rx="64" fill="#F8F6FE"/>
<path d="M66.6666 73.9531C68.2608 73.031 69.3333 71.3074 69.3333 69.3333C69.3333 66.3878 66.9455 64 64 64C61.0544 64 58.6666 66.3878 58.6666 69.3333C58.6666 71.3074 59.7392 73.031 61.3333 73.9531V77.3333C61.3333 78.8061 62.5272 80 64 80C65.4727 80 66.6666 78.8061 66.6666 77.3333V73.9531Z" fill="#6837E3"/>
<path fill-rule="evenodd" clip-rule="evenodd" d="M64 37.3333C56.6362 37.3333 50.6666 43.3029 50.6666 50.6666V54.4428C45.9575 56.5002 42.6666 61.1991 42.6666 66.6666V77.3333C42.6666 84.6971 48.6362 90.6666 56 90.6666H72C79.3638 90.6666 85.3333 84.6971 85.3333 77.3333V66.6666C85.3333 61.1991 82.0424 56.5002 77.3333 54.4428V50.6666C77.3333 43.3029 71.3638 37.3333 64 37.3333ZM72 58.6666H56C51.5817 58.6666 48 62.2484 48 66.6666V77.3333C48 81.7516 51.5817 85.3333 56 85.3333H72C76.4182 85.3333 80 81.7516 80 77.3333V66.6666C80 62.2484 76.4182 58.6666 72 58.6666ZM56 53.3333H72V50.6666C72 46.2484 68.4182 42.6666 64 42.6666C59.5817 42.6666 56 46.2484 56 50.6666V53.3333Z" fill="#6837E3"/>
</svg>
