<svg width="20" height="16" viewBox="0 0 20 16" fill="none" xmlns="http://www.w3.org/2000/svg">
<path fill-rule="evenodd" clip-rule="evenodd" d="M9.99953 3.99998C7.79023 3.99998 6 5.79062 6 8.00046C6 10.2095 7.79043 12 9.99953 12C12.2082 12 14 10.21 14 8.00046C14 5.79021 12.2084 3.99998 9.99953 3.99998ZM8 8.00046C8 6.89478 8.89521 5.99998 9.99953 5.99998C11.1043 5.99998 12 6.89519 12 8.00046C12 9.10457 11.1045 9.99998 9.99953 9.99998C8.895 9.99998 8 9.10498 8 8.00046Z" fill="#6837E3"/>
<path fill-rule="evenodd" clip-rule="evenodd" d="M14.2389 1.00141C11.5704 -0.332825 8.4295 -0.332825 5.76104 1.00141C4.14869 1.80758 2.79966 3.05682 1.8722 4.60259L0.654989 6.63127C0.149509 7.47374 0.149509 8.52622 0.654989 9.36869L1.8722 11.3974C2.79966 12.9431 4.14869 14.1924 5.76104 14.9986C8.4295 16.3328 11.5704 16.3328 14.2389 14.9986C15.8512 14.1924 17.2003 12.9431 18.1277 11.3974L19.3449 9.36869C19.8504 8.52622 19.8504 7.47374 19.3449 6.63127L18.1277 4.60259C17.2002 3.05682 15.8512 1.80758 14.2389 1.00141ZM6.65546 2.79026C8.76087 1.73756 11.239 1.73756 13.3444 2.79026C14.6166 3.42633 15.681 4.41197 16.4127 5.63158L17.6299 7.66026C17.7554 7.86937 17.7554 8.13059 17.6299 8.3397L16.4127 10.3684C15.681 11.588 14.6166 12.5736 13.3444 13.2097C11.239 14.2624 8.76087 14.2624 6.65546 13.2097C5.38332 12.5736 4.31895 11.588 3.58718 10.3684L2.36998 8.3397C2.24451 8.13059 2.24451 7.86937 2.36997 7.66026L3.58718 5.63158C4.31895 4.41198 5.38333 3.42633 6.65546 2.79026Z" fill="#6837E3"/>
</svg>
