<?xml version="1.0" ?><svg viewBox="0 0 64 64" xmlns="http://www.w3.org/2000/svg"><g id="Glyph"><g data-name="Glyph" id="Glyph-2"><path d="M48.2,30a7.47,7.47,0,0,1,.41-2,5.86,5.86,0,0,0,.32-3.54,5.92,5.92,0,0,0-2.4-2.75,7,7,0,0,1-1.42-1.27,7.12,7.12,0,0,1-.79-1.77,6,6,0,0,0-1.86-3.11A6.06,6.06,0,0,0,39,14.79a7.1,7.1,0,0,1-1.94-.2,6.73,6.73,0,0,1-1.61-.94A6.08,6.08,0,0,0,32,12.2a6.08,6.08,0,0,0-3.4,1.45,6.73,6.73,0,0,1-1.61.94,7.1,7.1,0,0,1-1.94.2,6.06,6.06,0,0,0-3.51.81,6,6,0,0,0-1.86,3.11,7.12,7.12,0,0,1-.79,1.77,7,7,0,0,1-1.42,1.27,5.92,5.92,0,0,0-2.4,2.75,5.9,5.9,0,0,0,.32,3.55A7.33,7.33,0,0,1,15.8,30a7.47,7.47,0,0,1-.41,2,5.86,5.86,0,0,0-.32,3.54,5.92,5.92,0,0,0,2.4,2.75,7,7,0,0,1,1.42,1.27,7.12,7.12,0,0,1,.79,1.77,6,6,0,0,0,1.86,3.11,6.06,6.06,0,0,0,3.51.81,7.1,7.1,0,0,1,1.94.2,6.73,6.73,0,0,1,1.61.94A6.08,6.08,0,0,0,32,47.8a6.08,6.08,0,0,0,3.4-1.45A6.73,6.73,0,0,1,37,45.41a7.1,7.1,0,0,1,1.94-.2,6.06,6.06,0,0,0,3.51-.81,6,6,0,0,0,1.86-3.11,7.12,7.12,0,0,1,.79-1.77,7,7,0,0,1,1.42-1.27,5.92,5.92,0,0,0,2.4-2.75A5.9,5.9,0,0,0,48.61,32,7.33,7.33,0,0,1,48.2,30ZM32,40.55A10.46,10.46,0,1,1,42.45,30.09,10.47,10.47,0,0,1,32,40.55Z"/><path d="M37.31,31.73a.25.25,0,0,0-.06.17l.29,2.4a2.19,2.19,0,0,1-.89,2.06,2.29,2.29,0,0,1-1.35.44,2.37,2.37,0,0,1-.94-.2l-2.24-1a.25.25,0,0,0-.24,0l-2.24,1a2.3,2.3,0,0,1-2.29-.24,2.19,2.19,0,0,1-.89-2.06l.29-2.4a.26.26,0,0,0-.07-.18L25,30a2.18,2.18,0,0,1-.5-2.2,2.23,2.23,0,0,1,1.71-1.51l2.43-.48a.21.21,0,0,0,.17-.12L30,23.53a2.28,2.28,0,0,1,3.94,0l1.21,2.11a.21.21,0,0,0,.17.12l2.43.48a2.23,2.23,0,0,1,1.71,1.51A2.18,2.18,0,0,1,39,30Z"/><path d="M28.86,58.5a1,1,0,0,1-1.36.36,38.17,38.17,0,0,1-9.19-7.38A9.77,9.77,0,0,1,11.5,55c-2.92,0-5.37-2-6.56-3.22a2,2,0,0,1,0-2.81c1.19-1.2,3.64-3.22,6.56-3.22a7.45,7.45,0,0,1,3,.68,39.64,39.64,0,0,1-2.45-4.51,7.32,7.32,0,0,1-5.91.83,7.52,7.52,0,0,1-3.85-4,2,2,0,0,1,1-2.66c1.34-.72,4.72-1.48,6.61,0-.5-1.62-.93-3.3-1.3-5.06a5.43,5.43,0,0,1-4.19-.33A5.55,5.55,0,0,1,2.1,27.73a2,2,0,0,1,1.49-2.6,5.15,5.15,0,0,1,4.09.66c-.19-1.44-.34-2.9-.45-4.43A4.83,4.83,0,0,1,3.76,21a4.91,4.91,0,0,1-2-2.79A2,2,0,0,1,3.2,15.68,4.48,4.48,0,0,1,7,16.35c0-1,0-2.09,0-3.17A4.94,4.94,0,0,1,5.46,9.76,5.19,5.19,0,0,1,6.68,6.64a1.71,1.71,0,0,1,2.66,0,5.25,5.25,0,0,1,1.21,3.12A4.81,4.81,0,0,1,9,13.2c-.2,22.08,6,36.05,19.51,43.94A1,1,0,0,1,28.86,58.5Z"/><path d="M56.77,21.36c-.11,1.53-.26,3-.45,4.43a5.15,5.15,0,0,1,4.09-.66,2,2,0,0,1,1.49,2.6,5.55,5.55,0,0,1-2.28,3.07,5.43,5.43,0,0,1-4.19.33c-.37,1.76-.8,3.44-1.3,5.06,1.89-1.53,5.27-.77,6.61,0a2,2,0,0,1,1,2.66,7.52,7.52,0,0,1-3.85,4A7.32,7.32,0,0,1,52,41.92a39.64,39.64,0,0,1-2.45,4.51,7.45,7.45,0,0,1,3-.68c2.92,0,5.37,2,6.56,3.22a2,2,0,0,1,0,2.81C57.87,53,55.42,55,52.5,55a9.77,9.77,0,0,1-6.81-3.52,38.17,38.17,0,0,1-9.19,7.38,1,1,0,0,1-1-1.72C49,49.25,55.21,35.28,55,13.2a4.81,4.81,0,0,1-1.56-3.44,5.25,5.25,0,0,1,1.21-3.12,1.71,1.71,0,0,1,2.66,0,5.19,5.19,0,0,1,1.22,3.12A4.94,4.94,0,0,1,57,13.18c0,1.08,0,2.13,0,3.17a4.48,4.48,0,0,1,3.82-.67,2,2,0,0,1,1.47,2.55,4.91,4.91,0,0,1-2,2.79A4.83,4.83,0,0,1,56.77,21.36Z"/></g></g></svg>