<svg width="137" height="26" viewBox="0 0 137 26" fill="none" xmlns="http://www.w3.org/2000/svg">
<g clip-path="url(#clip0_5261_4022)">
<path d="M14.3963 1.83276L3.10404 4.40377L5.70995 9.22519L1.24268 19.1419L15.4188 15.4568L13.8999 12.263L16.754 1.83276H14.3963Z" fill="#9D7EED"/>
<path d="M35.4883 9.86879C36.517 10.2975 37.4155 10.892 38.1836 11.6524C38.9517 12.4128 39.5523 13.3021 39.9854 14.3205C40.4185 15.3388 40.6344 16.4259 40.6344 17.583L39.0113 19.1898H28.7825C29.0207 20.0042 29.4215 20.6626 29.9837 21.1662C30.547 21.6699 31.2829 21.9217 32.1912 21.9217C32.7112 21.9217 33.1604 21.8738 33.5389 21.7768C33.9173 21.6797 34.2474 21.552 34.5291 21.391C34.8108 21.2301 35.0428 21.0422 35.2277 20.8284C35.4114 20.6147 35.5901 20.3887 35.7638 20.1528L40.3093 20.7953C40.071 21.4377 39.7248 22.0703 39.2706 22.6919C38.8164 23.3135 38.2531 23.865 37.5817 24.3478C36.9104 24.8293 36.1262 25.2162 35.2277 25.5049C34.3293 25.7948 33.3167 25.9385 32.1912 25.9385C31.0657 25.9385 30.037 25.7137 29.0418 25.2629C28.0466 24.8133 27.1693 24.2077 26.4111 23.4474C25.6529 22.687 25.0473 21.8025 24.5931 20.7953C24.139 19.788 23.9106 18.7168 23.9106 17.5806C23.9106 16.4443 24.1377 15.4002 24.5931 14.3819C25.0473 13.3635 25.6541 12.4742 26.4111 11.7138C27.1693 10.9535 28.0454 10.3479 29.0418 9.89827C30.037 9.44868 31.0881 9.22266 32.1912 9.22266C33.3602 9.22266 34.4584 9.43639 35.4871 9.8651L35.4883 9.86879ZM29.9849 13.9998C29.4215 14.5035 29.0219 15.1619 28.7837 15.9763H35.6025C35.3642 15.1619 34.9634 14.5035 34.4013 13.9998C33.8379 13.4962 33.1021 13.2444 32.1937 13.2444C31.2854 13.2444 30.5483 13.4962 29.9861 13.9998H29.9849Z" fill="black"/>
<path d="M43.2005 12.215C43.5033 11.6573 43.9475 11.1598 44.532 10.72C45.1165 10.2803 45.8412 9.92159 46.7073 9.64275C47.5735 9.36391 48.5798 9.2251 49.7277 9.2251C50.7018 9.2251 51.5841 9.36391 52.3745 9.64275C53.165 9.92159 53.8574 10.2803 54.4531 10.72C55.0487 11.1598 55.5513 11.6573 55.9633 12.215C56.374 12.7727 56.678 13.3291 56.8728 13.8868L52.6513 14.5293C52.4775 14.2074 52.1537 13.8598 51.6772 13.4851C51.2006 13.1105 50.5517 12.9225 49.7289 12.9225C49.0799 12.9225 48.565 13.0835 48.1865 13.4041C47.808 13.7259 47.6181 14.0465 47.6181 14.3683C47.6181 14.7111 47.8452 14.985 48.2994 15.1877C48.7536 15.3916 49.3281 15.5844 50.0205 15.7662C50.713 15.948 51.455 16.152 52.2455 16.3768C53.036 16.6016 53.7768 16.9123 54.4692 17.3091C55.1616 17.7059 55.7362 18.2193 56.1903 18.852C56.6445 19.4846 56.8716 20.2928 56.8716 21.2792C56.8716 21.8369 56.7202 22.3934 56.4174 22.9511C56.1146 23.5088 55.6592 24.0063 55.0537 24.446C54.4481 24.8858 53.6849 25.2445 52.7642 25.5233C51.8447 25.8022 50.7775 25.941 49.5651 25.941C48.4607 25.941 47.4816 25.8022 46.6267 25.5233C45.7717 25.2445 45.0246 24.8747 44.3856 24.4141C43.7465 23.9534 43.2117 23.4228 42.7786 22.8233C42.3455 22.2239 42.0105 21.6023 41.7722 20.9586L46.3177 20.3162C46.5559 20.8088 46.9294 21.2534 47.4382 21.6502C47.947 22.047 48.6555 22.2447 49.5651 22.2447C50.3879 22.2447 50.9996 22.0838 51.3992 21.7632C51.8 21.4414 51.9998 21.1208 51.9998 20.7989C51.9998 20.4562 51.7727 20.1823 51.3173 19.9796C50.8631 19.7757 50.2886 19.5828 49.5962 19.401C48.9037 19.2192 48.1617 19.0153 47.3724 18.7905C46.582 18.5657 45.8412 18.255 45.1475 17.8582C44.4551 17.4614 43.8805 16.948 43.4264 16.3153C42.9722 15.6827 42.7439 14.8744 42.7439 13.888C42.7439 13.3304 42.8952 12.7739 43.198 12.2162L43.2005 12.215Z" fill="black"/>
<path d="M67.9106 25.2974H61.0918L58.1694 9.8689H62.7149L64.5006 20.476H64.9882L66.9365 9.8689H72.7811L74.7294 20.476H75.217L77.0027 9.8689H81.5482L78.6258 25.2974H71.807L70.0214 15.3328H69.6962L67.9106 25.2974Z" fill="black"/>
<path d="M84.4062 2.57225C84.9038 2.07967 85.5205 1.83276 86.2576 1.83276C86.9947 1.83276 87.6102 2.07967 88.1091 2.57225C88.6067 3.06483 88.8561 3.67534 88.8561 4.405C88.8561 5.13466 88.6067 5.74394 88.1091 6.23775C87.6115 6.73034 86.9947 6.97724 86.2576 6.97724C85.5205 6.97724 84.9051 6.73034 84.4062 6.23775C83.9086 5.74517 83.6592 5.13466 83.6592 4.405C83.6592 3.67534 83.9086 3.06606 84.4062 2.57225ZM83.9843 25.2974V9.86886H88.5297V25.2974H83.9843Z" fill="black"/>
<path d="M92.7512 9.86885V6.01172H97.2967V9.86885H100.544V13.8869H97.2967V19.6726C97.2967 20.401 97.4865 20.9587 97.865 21.3444C98.2435 21.7301 98.7585 21.923 99.4075 21.923C99.6457 21.923 99.8728 21.9021 100.09 21.8591C100.306 21.8161 100.501 21.7633 100.674 21.6982C100.869 21.6122 101.043 21.5262 101.194 21.4415L101.843 25.2986C101.562 25.4276 101.248 25.5344 100.902 25.6204C100.599 25.7064 100.246 25.7813 99.8467 25.8452C99.4459 25.9091 99.029 25.9423 98.5971 25.9423C97.7744 25.9423 97.0113 25.7875 96.3077 25.4767C95.6041 25.1659 94.9873 24.7372 94.4562 24.1906C93.9264 23.644 93.5094 22.9855 93.2066 22.2141C92.9039 21.4427 92.7525 20.5963 92.7525 19.675V13.8894H90.9668V9.8713H92.7525L92.7512 9.86885Z" fill="black"/>
<path d="M107.949 25.2654C106.953 24.8158 106.076 24.2102 105.318 23.4498C104.56 22.6894 103.954 21.805 103.5 20.7977C103.046 19.7904 102.819 18.7193 102.819 17.583C102.819 16.4468 103.046 15.4026 103.5 14.3843C103.954 13.366 104.561 12.4766 105.318 11.7163C106.076 10.9559 106.952 10.3503 107.949 9.90071C108.945 9.45112 109.995 9.2251 111.098 9.2251C112.201 9.2251 113.122 9.37987 113.988 9.69066C114.854 10.0014 115.611 10.408 116.261 10.9117C116.91 11.4153 117.441 11.9828 117.852 12.6154C118.263 13.2481 118.556 13.8856 118.73 14.528L114.184 15.1705C113.946 14.6779 113.579 14.2332 113.08 13.8365C112.582 13.4397 111.922 13.2419 111.099 13.2419C110.602 13.2419 110.13 13.3488 109.687 13.5638C109.243 13.7775 108.848 14.0723 108.502 14.4482C108.156 14.8228 107.879 15.2786 107.674 15.8142C107.468 16.3497 107.365 16.9394 107.365 17.5818C107.365 18.2242 107.468 18.8139 107.674 19.3494C107.88 19.885 108.156 20.3408 108.502 20.7154C108.848 21.0901 109.243 21.3849 109.687 21.5998C110.131 21.8136 110.602 21.9217 111.099 21.9217C112.009 21.9217 112.745 21.6809 113.307 21.1982C113.87 20.7154 114.27 20.154 114.508 19.5104L119.053 20.1528C118.88 20.9242 118.583 21.6588 118.16 22.3541C117.738 23.0506 117.197 23.6611 116.537 24.1868C115.877 24.7113 115.086 25.1351 114.167 25.457C113.247 25.7788 112.223 25.9397 111.098 25.9397C109.972 25.9397 108.944 25.7149 107.949 25.2641V25.2654Z" fill="black"/>
<path d="M132.205 25.2973V16.4579C132.205 15.4936 131.929 14.7172 131.377 14.1276C130.825 13.538 130.181 13.2432 129.445 13.2432C128.904 13.2432 128.427 13.3881 128.017 13.6768C127.606 13.9667 127.249 14.2824 126.945 14.6251C126.598 15.0108 126.296 15.4604 126.035 15.9751V25.2973H121.49V2.797H126.035V11.4755H126.36C126.598 11.0689 126.912 10.6931 127.302 10.3503C127.627 10.0715 128.043 9.81476 128.552 9.57891C129.06 9.34306 129.683 9.22514 130.419 9.22514C131.263 9.22514 132.069 9.39711 132.839 9.73983C133.607 10.0825 134.283 10.5702 134.868 11.2028C135.452 11.8355 135.913 12.5958 136.248 13.4852C136.583 14.3745 136.751 15.3658 136.751 16.4579V25.2973H132.206H132.205Z" fill="black"/>
<path d="M17.485 16.2393C18.5522 15.813 19.5114 15.1779 20.3118 14.3856C21.853 12.8612 22.8048 10.7545 22.8048 8.42672C22.8048 3.77237 18.9939 0 14.2934 0H1.52814C0.8233 0 0.25 0.567514 0.25 1.26524V23.9744C0.25 25.0922 1.24769 25.9988 2.47619 25.9988H20.5773C22.363 25.9988 23.4203 24.1783 22.4164 22.8345L17.4862 16.2368L17.485 16.2393ZM15.3655 3.94926L11.582 11.8527C11.4926 12.0406 11.5199 12.263 11.654 12.4227L13.3354 14.4311C13.5873 14.732 13.4384 15.1902 13.0562 15.2897L4.99648 17.378C4.55223 17.4934 4.175 17.0426 4.37106 16.6311L8.15459 8.72768C8.24394 8.53973 8.21664 8.3174 8.08262 8.15771L6.39995 6.1493C6.14804 5.84834 6.29695 5.39015 6.67915 5.29065L14.7389 3.2024C15.1831 3.08693 15.5603 3.53775 15.3643 3.94926H15.3655Z" fill="black"/>
<path d="M86.256 7.57296C88.0242 7.57296 89.4575 6.15405 89.4575 4.40373C89.4575 2.65341 88.0242 1.2345 86.256 1.2345C84.4878 1.2345 83.0544 2.65341 83.0544 4.40373C83.0544 6.15405 84.4878 7.57296 86.256 7.57296Z" fill="#9D7EED"/>
</g>
<defs>
<clipPath id="clip0_5261_4022">
<rect width="136.5" height="26" fill="white" transform="translate(0.25)"/>
</clipPath>
</defs>
</svg>
